<?xml version="1.0" encoding="utf-8"?>
<!-- Generator: Adobe Illustrator 18.1.0, SVG Export Plug-In . SVG Version: 6.00 Build 0)  -->
<!DOCTYPE svg PUBLIC "-//W3C//DTD SVG 1.1//EN" "http://www.w3.org/Graphics/SVG/1.1/DTD/svg11.dtd">
<svg version="1.1" id="Layer_1" xmlns="http://www.w3.org/2000/svg" xmlns:xlink="http://www.w3.org/1999/xlink" x="0px" y="0px"
	 viewBox="0 0 8.8 19.1" enable-background="new 0 0 8.8 19.1" xml:space="preserve">
<path id="facebook_14_" d="M8.7,0.2c0,1.1,0,3,0,3S6.5,3,6,3.8C5.7,4.3,5.8,5.7,5.8,6.6c1,0,2,0,2.9,0
	C8.5,7.8,8.3,8.5,8.1,9.5c-0.8,0-2.3,0-2.3,0v9.3c0,0-2.8,0-4.1,0c0-2.9,0-6.2,0-9.3c-0.6,0-1.1,0-1.7,0c0-1.1,0-1.9,0-2.9
	c0.6,0,1.1,0,1.7,0c0.1-2.1,0.1-4.3,1.2-5.4C4.1,0.1,5.2,0.2,8.7,0.2z"/>
</svg>
